<?xml version="1.0" encoding="UTF-8" standalone="no"?>
<!DOCTYPE svg PUBLIC "-//W3C//DTD SVG 1.1//EN"
 "http://www.w3.org/Graphics/SVG/1.1/DTD/svg11.dtd">
<!-- Generated by graphviz version 9.0.0 (0)
 -->
<!-- Title: CMakeExamples Pages: 1 -->
<svg width="1333pt" height="284pt"
 viewBox="0.00 0.00 1333.25 283.50" xmlns="http://www.w3.org/2000/svg" xmlns:xlink="http://www.w3.org/1999/xlink">
<g id="graph0" class="graph" transform="scale(1 1) rotate(0) translate(4 279.5)">
<title>CMakeExamples</title>
<polygon fill="white" stroke="none" points="-4,4 -4,-279.5 1329.25,-279.5 1329.25,4 -4,4"/>
<g id="clust1" class="cluster">
<title>clusterLegend</title>
<polygon fill="none" stroke="black" points="8,-8 8,-267.5 646,-267.5 646,-8 8,-8"/>
<text text-anchor="middle" x="327" y="-250.2" font-family="Times,serif" font-size="14.00">Legend</text>
</g>
<!-- legendNode0 -->
<g id="node1" class="node">
<title>legendNode0</title>
<polygon fill="none" stroke="black" points="346.19,-198.3 349.62,-198.4 353.02,-198.55 356.37,-198.74 359.65,-198.99 362.86,-199.28 365.99,-199.61 369.01,-200 371.91,-200.43 374.7,-200.9 377.35,-201.41 379.86,-201.96 382.22,-202.56 384.42,-203.19 386.45,-203.86 388.31,-204.56 390,-205.29 391.52,-206.05 392.84,-206.84 393.99,-207.66 394.95,-208.5 395.73,-209.36 396.33,-210.24 396.75,-211.14 396.98,-212.05 397.05,-212.97 396.94,-213.9 396.67,-214.84 396.24,-215.78 395.66,-216.72 394.92,-217.66 394.05,-218.6 393.04,-219.53 391.91,-220.45 390.66,-221.36 389.3,-222.26 387.83,-223.14 386.27,-224 384.62,-224.84 382.89,-225.66 381.08,-226.45 379.21,-227.21 377.28,-227.94 375.29,-228.64 373.26,-229.31 371.18,-229.94 369.07,-230.54 366.92,-231.09 364.74,-231.6 362.54,-232.07 360.32,-232.5 358.08,-232.89 355.83,-233.22 353.57,-233.51 351.3,-233.76 349.02,-233.95 346.73,-234.1 344.44,-234.2 342.15,-234.25 339.85,-234.25 337.56,-234.2 335.27,-234.1 332.98,-233.95 330.7,-233.76 328.43,-233.51 326.17,-233.22 323.92,-232.89 321.68,-232.5 319.46,-232.07 317.26,-231.6 315.08,-231.09 312.93,-230.54 310.82,-229.94 308.74,-229.31 306.71,-228.64 304.72,-227.94 302.79,-227.21 300.92,-226.45 299.11,-225.66 297.38,-224.84 295.73,-224 294.17,-223.14 292.7,-222.26 291.34,-221.36 290.09,-220.45 288.96,-219.53 287.95,-218.6 287.08,-217.66 286.34,-216.72 285.76,-215.78 285.33,-214.84 285.06,-213.9 284.95,-212.97 285.02,-212.05 285.25,-211.14 285.67,-210.24 286.27,-209.36 287.05,-208.5 288.01,-207.66 289.16,-206.84 290.48,-206.05 292,-205.29 293.69,-204.56 295.55,-203.86 297.58,-203.19 299.78,-202.56 302.14,-201.96 304.65,-201.41 307.3,-200.9 310.09,-200.43 312.99,-200 316.01,-199.61 319.14,-199.28 322.35,-198.99 325.63,-198.74 328.98,-198.55 332.38,-198.4 335.81,-198.3 339.27,-198.25 342.73,-198.25 346.19,-198.3"/>
<text text-anchor="middle" x="341" y="-211.97" font-family="Times,serif" font-size="12.00">Executable</text>
</g>
<!-- legendNode1 -->
<g id="node2" class="node">
<title>legendNode1</title>
<polygon fill="none" stroke="black" points="154.36,-127.79 154.36,-142.71 113.73,-153.25 56.27,-153.25 15.64,-142.71 15.64,-127.79 56.27,-117.25 113.73,-117.25 154.36,-127.79"/>
<text text-anchor="middle" x="85" y="-130.97" font-family="Times,serif" font-size="12.00">Static Library</text>
</g>
<!-- legendNode0&#45;&gt;legendNode1 -->
<g id="edge1" class="edge">
<title>legendNode0&#45;&gt;legendNode1</title>
<path fill="none" stroke="black" d="M298.5,-202.56C262.41,-191.73 209.24,-175.67 163,-161.25 154.98,-158.75 146.5,-156.07 138.21,-153.43"/>
<polygon fill="black" stroke="black" points="139.5,-150.16 128.91,-150.45 137.37,-156.83 139.5,-150.16"/>
</g>
<!-- legendNode2 -->
<g id="node3" class="node">
<title>legendNode2</title>
<polygon fill="none" stroke="black" points="326.04,-127.79 326.04,-142.71 282.08,-153.25 219.92,-153.25 175.96,-142.71 175.96,-127.79 219.92,-117.25 282.08,-117.25 326.04,-127.79"/>
<polygon fill="none" stroke="black" points="330.04,-124.64 330.04,-145.86 282.56,-157.25 219.44,-157.25 171.96,-145.86 171.96,-124.64 219.44,-113.25 282.56,-113.25 330.04,-124.64"/>
<text text-anchor="middle" x="251" y="-130.97" font-family="Times,serif" font-size="12.00">Shared Library</text>
</g>
<!-- legendNode0&#45;&gt;legendNode2 -->
<g id="edge2" class="edge">
<title>legendNode0&#45;&gt;legendNode2</title>
<path fill="none" stroke="black" d="M322.35,-198.88C311.31,-189.19 296.99,-176.62 284.09,-165.29"/>
<polygon fill="black" stroke="black" points="286.4,-162.67 276.57,-158.7 281.78,-167.93 286.4,-162.67"/>
</g>
<!-- legendNode3 -->
<g id="node4" class="node">
<title>legendNode3</title>
<polygon fill="none" stroke="black" points="508.07,-127.79 508.07,-142.71 463.51,-153.25 400.49,-153.25 355.93,-142.71 355.93,-127.79 400.49,-117.25 463.51,-117.25 508.07,-127.79"/>
<polygon fill="none" stroke="black" points="512.07,-124.63 512.07,-145.87 463.98,-157.25 400.02,-157.25 351.93,-145.87 351.93,-124.63 400.02,-113.25 463.98,-113.25 512.07,-124.63"/>
<polygon fill="none" stroke="black" points="516.07,-121.47 516.07,-149.03 464.44,-161.25 399.56,-161.25 347.93,-149.03 347.93,-121.47 399.56,-109.25 464.44,-109.25 516.07,-121.47"/>
<text text-anchor="middle" x="432" y="-130.97" font-family="Times,serif" font-size="12.00">Module Library</text>
</g>
<!-- legendNode0&#45;&gt;legendNode3 -->
<!-- legendNode7 -->
<g id="node8" class="node">
<title>legendNode7</title>
<polygon fill="none" stroke="black" points="638.25,-153.25 533.75,-153.25 533.75,-117.25 638.25,-117.25 638.25,-153.25"/>
<text text-anchor="middle" x="586" y="-130.97" font-family="Times,serif" font-size="12.00">Custom Target</text>
</g>
<!-- legendNode0&#45;&gt;legendNode7 -->
<!-- legendNode4 -->
<g id="node5" class="node">
<title>legendNode4</title>
<polygon fill="none" stroke="black" points="205.54,-39.56 111,-52 16.46,-39.56 52.57,-19.44 169.43,-19.44 205.54,-39.56"/>
<text text-anchor="middle" x="111" y="-29.73" font-family="Times,serif" font-size="12.00">Interface Library</text>
</g>
<!-- legendNode1&#45;&gt;legendNode4 -->
<g id="edge4" class="edge">
<title>legendNode1&#45;&gt;legendNode4</title>
<path fill="none" stroke="black" stroke-dasharray="5,2" d="M89.53,-116.96C93.47,-101.93 99.24,-79.88 103.81,-62.44"/>
<polygon fill="black" stroke="black" points="107.08,-63.78 106.23,-53.22 100.31,-62.01 107.08,-63.78"/>
<text text-anchor="middle" x="133.25" y="-77.95" font-family="Times,serif" font-size="14.00">Interface</text>
</g>
<!-- legendNode5 -->
<g id="node6" class="node">
<title>legendNode5</title>
<polygon fill="none" stroke="black" points="376.75,-34 338.37,-52 261.63,-52 223.25,-34 261.63,-16 338.37,-16 376.75,-34"/>
<text text-anchor="middle" x="300" y="-29.73" font-family="Times,serif" font-size="12.00">Object Library</text>
</g>
<!-- legendNode2&#45;&gt;legendNode5 -->
<g id="edge5" class="edge">
<title>legendNode2&#45;&gt;legendNode5</title>
<path fill="none" stroke="black" stroke-dasharray="1,5" d="M261.39,-113.2C268.72,-98.36 278.6,-78.34 286.53,-62.27"/>
<polygon fill="black" stroke="black" points="289.46,-64.25 290.75,-53.74 283.18,-61.15 289.46,-64.25"/>
<text text-anchor="middle" x="305.88" y="-77.95" font-family="Times,serif" font-size="14.00">Private</text>
</g>
<!-- legendNode6 -->
<g id="node7" class="node">
<title>legendNode6</title>
<polygon fill="none" stroke="black" points="569.01,-29.99 551.77,-45.22 482,-52 412.23,-45.22 394.99,-29.99 443.28,-17.78 520.72,-17.78 569.01,-29.99"/>
<text text-anchor="middle" x="482" y="-29.73" font-family="Times,serif" font-size="12.00">Unknown Library</text>
</g>
<!-- legendNode3&#45;&gt;legendNode6 -->
<g id="edge6" class="edge">
<title>legendNode3&#45;&gt;legendNode6</title>
<path fill="none" stroke="black" d="M444.75,-108.95C452.06,-94.44 461.22,-76.24 468.64,-61.53"/>
<polygon fill="black" stroke="black" points="471.62,-63.39 472.99,-52.88 465.37,-60.24 471.62,-63.39"/>
</g>
<!-- node0 -->
<g id="node9" class="node">
<title>node0</title>
<polygon fill="none" stroke="black" points="715.54,-127.79 715.54,-142.71 699.41,-153.25 676.59,-153.25 660.46,-142.71 660.46,-127.79 676.59,-117.25 699.41,-117.25 715.54,-127.79"/>
<polygon fill="none" stroke="black" points="719.54,-125.63 719.54,-144.87 700.6,-157.25 675.4,-157.25 656.46,-144.87 656.46,-125.63 675.4,-113.25 700.6,-113.25 719.54,-125.63"/>
<text text-anchor="middle" x="688" y="-130.97" font-family="Times,serif" font-size="12.00">libA</text>
</g>
<!-- node1 -->
<g id="node10" class="node">
<title>node1</title>
<polygon fill="none" stroke="black" points="796.54,-127.79 796.54,-142.71 780.41,-153.25 757.59,-153.25 741.46,-142.71 741.46,-127.79 757.59,-117.25 780.41,-117.25 796.54,-127.79"/>
<polygon fill="none" stroke="black" points="800.54,-125.63 800.54,-144.87 781.6,-157.25 756.4,-157.25 737.46,-144.87 737.46,-125.63 756.4,-113.25 781.6,-113.25 800.54,-125.63"/>
<text text-anchor="middle" x="769" y="-130.97" font-family="Times,serif" font-size="12.00">libB</text>
</g>
<!-- node2 -->
<g id="node11" class="node">
<title>node2</title>
<polygon fill="none" stroke="black" points="796.54,-26.54 796.54,-41.46 780.41,-52 757.59,-52 741.46,-41.46 741.46,-26.54 757.59,-16 780.41,-16 796.54,-26.54"/>
<polygon fill="none" stroke="black" points="800.54,-24.38 800.54,-43.62 781.6,-56 756.4,-56 737.46,-43.62 737.46,-24.38 756.4,-12 781.6,-12 800.54,-24.38"/>
<text text-anchor="middle" x="769" y="-29.73" font-family="Times,serif" font-size="12.00">libC</text>
</g>
<!-- node1&#45;&gt;node2 -->
<g id="edge8" class="edge">
<title>node1&#45;&gt;node2</title>
<path fill="none" stroke="black" d="M769,-113.2C769,-100 769,-82.71 769,-67.74"/>
<polygon fill="black" stroke="black" points="772.5,-67.87 769,-57.87 765.5,-67.87 772.5,-67.87"/>
</g>
<!-- node3 -->
<g id="node12" class="node">
<title>node3</title>
<polygon fill="none" stroke="black" points="771.88,-198.3 773.79,-198.4 775.68,-198.55 777.54,-198.74 779.37,-198.99 781.15,-199.28 782.89,-199.61 784.57,-200 786.18,-200.43 787.73,-200.9 789.21,-201.41 790.6,-201.96 791.91,-202.56 793.13,-203.19 794.27,-203.86 795.3,-204.56 796.24,-205.29 797.08,-206.05 797.82,-206.84 798.46,-207.66 798.99,-208.5 799.43,-209.36 799.76,-210.24 799.99,-211.14 800.12,-212.05 800.16,-212.97 800.1,-213.9 799.95,-214.84 799.71,-215.78 799.38,-216.72 798.98,-217.66 798.49,-218.6 797.93,-219.53 797.3,-220.45 796.61,-221.36 795.85,-222.26 795.03,-223.14 794.17,-224 793.25,-224.84 792.29,-225.66 791.28,-226.45 790.24,-227.21 789.17,-227.94 788.06,-228.64 786.93,-229.31 785.78,-229.94 784.6,-230.54 783.41,-231.09 782.2,-231.6 780.98,-232.07 779.74,-232.5 778.5,-232.89 777.25,-233.22 775.99,-233.51 774.72,-233.76 773.46,-233.95 772.18,-234.1 770.91,-234.2 769.64,-234.25 768.36,-234.25 767.09,-234.2 765.82,-234.1 764.54,-233.95 763.28,-233.76 762.01,-233.51 760.75,-233.22 759.5,-232.89 758.26,-232.5 757.02,-232.07 755.8,-231.6 754.59,-231.09 753.4,-230.54 752.22,-229.94 751.07,-229.31 749.94,-228.64 748.83,-227.94 747.76,-227.21 746.72,-226.45 745.71,-225.66 744.75,-224.84 743.83,-224 742.97,-223.14 742.15,-222.26 741.39,-221.36 740.7,-220.45 740.07,-219.53 739.51,-218.6 739.02,-217.66 738.62,-216.72 738.29,-215.78 738.05,-214.84 737.9,-213.9 737.84,-212.97 737.88,-212.05 738.01,-211.14 738.24,-210.24 738.57,-209.36 739.01,-208.5 739.54,-207.66 740.18,-206.84 740.92,-206.05 741.76,-205.29 742.7,-204.56 743.73,-203.86 744.87,-203.19 746.09,-202.56 747.4,-201.96 748.79,-201.41 750.27,-200.9 751.82,-200.43 753.43,-200 755.11,-199.61 756.85,-199.28 758.63,-198.99 760.46,-198.74 762.32,-198.55 764.21,-198.4 766.12,-198.3 768.04,-198.25 769.96,-198.25 771.88,-198.3"/>
<text text-anchor="middle" x="769" y="-211.97" font-family="Times,serif" font-size="12.00">main</text>
</g>
<!-- node3&#45;&gt;node0 -->
<g id="edge10" class="edge">
<title>node3&#45;&gt;node0</title>
<path fill="none" stroke="black" stroke-dasharray="1,5" d="M753,-199.64C741.95,-188.87 727.02,-174.3 714.25,-161.85"/>
<polygon fill="black" stroke="black" points="716.92,-159.56 707.32,-155.09 712.03,-164.58 716.92,-159.56"/>
</g>
<!-- node3&#45;&gt;node1 -->
<g id="edge11" class="edge">
<title>node3&#45;&gt;node1</title>
<path fill="none" stroke="black" stroke-dasharray="1,5" d="M769,-198.11C769,-189.56 769,-178.94 769,-168.91"/>
<polygon fill="black" stroke="black" points="772.5,-169.1 769,-159.1 765.5,-169.1 772.5,-169.1"/>
</g>
<!-- node4 -->
<g id="node13" class="node">
<title>node4</title>
<polygon fill="none" stroke="black" points="1325.25,-131.24 1275.09,-146.47 1072,-153.25 868.91,-146.47 818.75,-131.24 959.29,-119.03 1184.71,-119.03 1325.25,-131.24"/>
<text text-anchor="middle" x="1072" y="-130.97" font-family="Times,serif" font-size="12.00">/home/luc/Projects/CMake&#45;Examples/deps/libD/lib/libd.so</text>
</g>
<!-- node3&#45;&gt;node4 -->
<g id="edge9" class="edge">
<title>node3&#45;&gt;node4</title>
<path fill="none" stroke="black" stroke-dasharray="1,5" d="M798.88,-207.46C845.67,-195.26 937.5,-171.32 1001.7,-154.58"/>
<polygon fill="black" stroke="black" points="1002.3,-158.04 1011.09,-152.13 1000.53,-151.27 1002.3,-158.04"/>
</g>
</g>
</svg>
